<svg xmlns="http://www.w3.org/2000/svg" width="512" height="512" viewBox="0 0 1038 1036" role="img" aria-label="whoburnedmore">

  <g fill="#f97316" stroke="none">
    <g transform="translate(0,1036) scale(0.1,-0.1)"><path d="M3027 3818 c-18 -29 -68 -109 -110 -178 -43 -69 -98 -155 -122 -192
l-45 -68 43 -26 c23 -14 52 -32 64 -40 215 -135 849 -463 1088 -562 387 -162
497 -203 800 -304 478 -159 1004 -273 1420 -308 109 -9 285 -14 285 -7 0 2 45
136 135 397 25 74 54 158 65 185 48 126 170 518 170 549 0 10 -48 15 -212 20
-208 7 -264 11 -518 42 -257 30 -810 143 -810 164 0 4 -12 8 -27 9 -53 1 -63
2 -62 9 3 19 -2 25 -10 13 -8 -12 -28 -9 -123 18 -179 52 -558 173 -688 221
-328 121 -284 110 -437 109 l-138 0 60 -28 c33 -15 152 -62 265 -103 583 -216
942 -324 1490 -447 137 -31 453 -86 613 -107 75 -10 137 -20 137 -23 0 -3 28
-7 62 -9 42 -1 65 -7 73 -18 10 -14 12 -14 23 -1 9 11 25 13 55 10 23 -3 44
-7 45 -9 2 -1 -3 -17 -11 -36 -8 -18 -41 -114 -73 -213 -32 -99 -76 -227 -99
-285 -23 -58 -50 -129 -60 -158 -9 -29 -24 -56 -31 -59 -8 -3 -14 -13 -13 -22
2 -9 -1 -31 -5 -49 -6 -24 -12 -32 -23 -28 -8 3 -29 6 -46 7 -18 0 -26 3 -19
6 12 5 17 33 6 33 -3 0 -19 -9 -34 -20 -26 -19 -35 -19 -132 -10 -442 44 -954
168 -1540 374 -141 49 -392 145 -473 181 -406 180 -891 438 -981 522 -16 15
-35 26 -42 25 -8 -2 -16 6 -19 18 -4 13 -11 19 -20 16 -8 -4 -19 -4 -23 -1
-14 8 0 35 17 35 8 0 13 6 10 13 -3 7 4 24 14 38 10 13 19 33 19 44 0 11 7 30
15 43 9 12 31 49 50 82 19 33 51 87 69 120 l35 60 -74 0 -74 0 -34 -52z"/>
<path d="M4415 3860 c3 -5 10 -10 16 -10 5 0 9 5 9 10 0 6 -7 10 -16 10 -8 0
-12 -4 -9 -10z"/>
<path d="M4460 3856 c0 -9 7 -16 16 -16 9 0 14 5 12 12 -6 18 -28 21 -28 4z"/>
<path d="M4605 3821 c44 -27 87 -56 96 -64 27 -24 38 -28 79 -31 22 -2 45 -8
52 -13 24 -19 148 -64 158 -58 6 4 17 1 25 -5 18 -15 49 -5 39 12 -5 8 0 9 17
5 13 -4 28 -7 32 -7 5 0 6 -4 3 -9 -3 -4 3 -16 13 -25 17 -16 19 -16 25 0 4
12 13 14 32 10 36 -9 64 2 64 25 0 10 7 19 15 19 8 0 15 -8 15 -19 0 -23 33
-33 67 -20 16 6 23 14 19 24 -3 8 -2 15 3 15 5 0 12 -11 15 -25 4 -14 11 -25
16 -25 6 0 10 -7 10 -15 0 -17 16 -20 25 -5 7 11 -7 41 -30 64 -13 13 -12 15
13 14 15 -1 38 2 51 7 16 5 21 4 17 -4 -4 -6 1 -14 10 -18 10 -4 19 -2 22 5 2
7 10 12 18 12 8 0 28 7 44 15 19 10 30 12 30 5 0 -7 8 -10 17 -8 9 2 15 6 12
10 -11 18 49 47 143 67 116 25 146 35 203 68 l40 23 -745 0 -744 0 79 -49z"/>
<path d="M6360 3836 c-361 -127 -913 -293 -918 -278 -6 18 -22 14 -22 -5 0
-13 -3 -14 -12 -5 -22 22 -37 11 -20 -15 4 -6 58 -22 119 -34 l112 -23 88 27
c48 15 142 43 208 63 284 84 626 198 850 284 l50 19 -180 0 c-178 0 -181 -1
-275 -33z"/>
<path d="M7025 3860 c3 -5 15 -10 25 -10 10 0 22 5 25 10 4 6 -7 10 -25 10
-18 0 -29 -4 -25 -10z"/>
<path d="M7180 3865 c0 -2 63 -99 140 -214 77 -115 140 -215 140 -224 0 -8 7
-18 16 -21 21 -8 11 -53 -17 -77 -10 -9 -19 -20 -19 -25 0 -9 -307 -163 -511
-257 l-95 -44 -18 -67 c-10 -37 -17 -69 -15 -71 6 -6 305 126 453 200 172 85
449 239 453 252 2 5 -23 46 -54 90 -32 45 -115 167 -186 272 l-128 191 -79 0
c-44 0 -80 -2 -80 -5z"/>
<path d="M3553 3833 c-67 -38 -177 -41 -267 -7 -8 3 -36 -36 -76 -108 -58
-103 -62 -113 -45 -123 45 -25 93 -78 119 -130 24 -46 28 -64 24 -109 -3 -41
-1 -56 11 -63 26 -16 239 -127 331 -172 47 -24 111 -56 143 -72 106 -55 408
-182 415 -175 3 3 -15 27 -40 53 -24 27 -61 78 -81 115 -87 154 -54 313 82
396 53 33 160 71 228 80 81 12 72 18 -167 102 -30 10 -93 32 -140 49 -47 16
-123 46 -170 67 -47 20 -112 47 -145 59 -33 12 -80 32 -105 44 -56 25 -65 25
-117 -6z"/>
<path d="M6705 3749 c-304 -109 -841 -289 -862 -289 -7 0 -13 -4 -13 -9 0 -10
21 -15 130 -31 41 -5 125 -17 185 -26 61 -8 156 -18 212 -21 l101 -6 -1 27
c-1 15 -8 26 -16 26 -12 0 -12 3 -3 12 14 14 80 38 106 38 19 0 19 2 -1 -86
-4 -19 1 -22 49 -27 29 -4 117 -7 196 -7 132 0 143 -1 138 -17 -42 -150 -62
-233 -53 -233 2 0 46 18 98 41 52 22 125 54 163 69 38 16 73 33 77 37 5 5 4
26 -2 46 -11 40 3 107 22 107 5 0 8 3 7 8 -5 20 17 53 48 72 20 13 31 26 27
33 -4 7 -33 51 -65 99 -32 49 -61 95 -65 104 -6 17 -12 16 -119 -5 -50 -10
-152 18 -201 55 -17 13 -35 24 -40 23 -4 0 -57 -18 -118 -40z m414 -199 c9
-27 8 -30 -11 -30 -14 0 -18 4 -14 16 4 9 1 23 -5 30 -9 11 -8 14 4 14 8 0 20
-13 26 -30z m40 -139 c-8 -11 -19 -16 -31 -13 -22 5 -13 18 17 25 11 3 21 5
23 6 1 0 -3 -7 -9 -18z"/>
<path d="M5690 3740 c0 -5 5 -10 10 -10 6 0 10 5 10 10 0 6 -4 10 -10 10 -5 0
-10 -4 -10 -10z"/>
<path d="M6985 3740 c-3 -5 -1 -10 4 -10 6 0 11 5 11 10 0 6 -2 10 -4 10 -3 0
-8 -4 -11 -10z"/>
<path d="M4852 3659 c2 -7 10 -15 17 -17 8 -3 12 1 9 9 -2 7 -10 15 -17 17 -8
3 -12 -1 -9 -9z"/>
<path d="M5455 3660 c-4 -6 -3 -16 3 -22 6 -6 12 -6 17 2 4 6 3 16 -3 22 -6 6
-12 6 -17 -2z"/>
<path d="M5475 3589 c-4 -6 -5 -13 -2 -16 7 -7 27 6 27 18 0 12 -17 12 -25 -2z"/>
<path d="M3060 3465 c-17 -20 3 -45 37 -45 28 0 40 24 23 45 -16 19 -44 19
-60 0z"/>
<path d="M3195 3470 c-17 -28 35 -41 68 -16 16 13 16 14 -5 20 -34 9 -56 7
-63 -4z"/>
<path d="M4455 3461 c-98 -10 -198 -48 -251 -94 -62 -54 -74 -83 -74 -170 0
-59 5 -83 27 -126 96 -195 424 -382 746 -428 243 -34 446 10 566 122 58 55 96
132 88 182 -10 56 -51 135 -101 190 -184 203 -664 359 -1001 324z m497 -158
c4 -2 5 -16 2 -31 -5 -26 -2 -29 50 -51 31 -13 65 -35 76 -49 23 -29 23 -68 0
-65 -66 7 -88 15 -100 38 -26 48 -161 91 -209 65 -16 -8 -21 -19 -19 -38 3
-24 19 -35 140 -95 108 -52 141 -73 153 -97 51 -99 -38 -172 -193 -155 -61 6
-67 5 -83 -16 -15 -20 -21 -21 -50 -12 -34 10 -36 14 -24 45 5 14 -7 24 -59
48 -74 35 -106 69 -106 113 0 29 1 29 38 23 20 -3 45 -6 54 -6 10 0 20 -10 24
-24 12 -49 83 -87 189 -102 58 -9 104 36 74 72 -7 9 -63 40 -123 69 -152 72
-189 111 -172 180 13 51 122 83 217 62 32 -7 37 -5 47 18 10 21 16 24 39 19
16 -4 31 -9 35 -11z m-66 -145 c4 -5 2 -14 -4 -20 -14 -14 -53 8 -46 26 6 15
40 10 50 -6z m-76 -188 c21 -13 0 -31 -28 -24 -12 4 -22 13 -22 20 0 16 28 18
50 4z"/>
<path d="M7386 3378 c-22 -12 -20 -35 5 -48 16 -9 24 -8 39 5 32 29 -4 65 -44
43z"/>
<path d="M5468 3224 c58 -49 131 -146 153 -205 28 -73 25 -138 -10 -207 -56
-111 -175 -185 -359 -224 -99 -21 -116 -31 -70 -41 13 -2 66 -16 118 -30 109
-30 407 -90 525 -107 44 -6 91 -13 106 -16 21 -4 30 3 58 41 54 75 182 135
288 135 l54 0 20 48 c11 26 31 79 44 117 13 39 31 87 39 107 19 46 20 58 3 58
-8 0 -41 14 -75 31 -75 37 -119 87 -128 146 -5 33 -11 44 -28 47 -11 3 -109
19 -216 36 -107 17 -233 39 -280 50 -135 29 -244 50 -265 50 -16 0 -11 -8 23
-36z"/>
<path d="M6450 3095 c-10 -12 -10 -18 0 -30 7 -8 18 -15 25 -15 18 0 48 37 40
49 -9 16 -51 13 -65 -4z"/>
<path d="M6545 3080 c3 -5 8 -10 11 -10 2 0 4 5 4 10 0 6 -5 10 -11 10 -5 0
-7 -4 -4 -10z"/>
<path d="M3140 2995 c-52 -12 -146 -34 -209 -49 -168 -38 -191 -46 -191 -59 0
-7 26 -55 59 -107 66 -108 178 -297 341 -580 214 -370 241 -411 258 -406 10 2
58 16 107 29 545 151 915 267 1422 450 18 7 32 17 31 22 -1 6 -45 23 -97 38
l-95 28 -140 -44 c-127 -40 -220 -68 -426 -127 -159 -45 -411 -103 -475 -107
-38 -3 -72 -9 -75 -13 -9 -12 -60 -21 -60 -10 0 5 5 10 11 10 5 0 7 5 3 11 -4
7 -16 1 -33 -15 -17 -17 -43 -28 -73 -32 -44 -6 -47 -5 -63 25 -8 17 -13 36
-10 41 4 6 -2 13 -12 17 -27 10 -83 87 -170 233 -24 41 -71 118 -104 170 -32
52 -69 113 -80 135 -12 22 -30 51 -41 64 -17 23 -13 45 10 46 16 1 52 31 52
43 0 9 -11 12 -32 10 -24 -2 -32 -8 -30 -19 4 -26 -38 -18 -57 11 -12 18 -12
22 -2 16 9 -6 18 -3 27 9 7 10 20 15 28 12 8 -3 28 0 43 8 23 11 161 48 297
79 17 4 25 11 20 16 -10 9 -131 71 -136 69 -2 -1 -46 -11 -98 -24z"/>
<path d="M3310 3015 c0 -10 65 -45 83 -45 26 0 20 18 -13 35 -28 14 -70 20
-70 10z"/>
<path d="M6300 3010 c0 -5 7 -10 15 -10 8 0 15 5 15 10 0 6 -7 10 -15 10 -8 0
-15 -4 -15 -10z"/>
<path d="M7133 2939 c-35 -16 -63 -33 -63 -37 0 -9 55 -22 179 -43 40 -7 80
-19 87 -27 9 -9 24 -12 39 -8 19 5 23 3 19 -9 -4 -8 -1 -15 5 -15 6 0 11 -5
11 -11 0 -6 -9 -9 -20 -6 -24 6 -36 -9 -22 -26 11 -13 -50 -119 -196 -342
-111 -171 -170 -248 -207 -273 -35 -22 -49 -49 -20 -38 12 4 13 2 2 -14 -6
-11 -18 -18 -25 -15 -7 2 -15 -2 -19 -11 -7 -18 -48 -11 -75 13 -13 12 -21 13
-31 5 -9 -8 -41 -5 -117 13 -139 33 -143 32 -159 -10 l-12 -35 -75 0 c-41 0
-74 -4 -74 -8 0 -12 610 -173 645 -172 6 1 21 18 34 38 46 70 355 600 431 737
15 28 50 91 78 140 29 50 52 95 52 102 0 12 -38 22 -190 48 -52 8 -119 20
-149 25 -66 12 -53 14 -128 -21z"/>
<path d="M3375 2881 c-62 -17 -62 -18 -49 -72 4 -17 -1 -43 -14 -72 -16 -37
-32 -52 -76 -77 -31 -18 -56 -38 -56 -45 0 -10 78 -137 164 -267 18 -27 22
-28 105 -28 47 0 104 -5 126 -11 66 -18 157 -68 197 -107 l38 -36 77 18 c43
10 113 29 156 42 43 13 84 24 91 24 26 0 477 138 489 150 5 4 -8 13 -30 20
-266 86 -703 270 -1036 436 -48 24 -96 44 -105 43 -9 0 -44 -8 -77 -18z"/>
<path d="M6894 2831 c-34 -16 -77 -34 -97 -40 -26 -9 -39 -21 -47 -44 -6 -18
-34 -95 -60 -172 -27 -77 -67 -192 -88 -255 -22 -63 -38 -118 -36 -122 10 -16
59 -8 71 11 19 30 135 95 144 80 9 -15 39 -4 39 15 0 21 61 36 142 36 l67 0
39 53 c52 71 152 226 152 235 0 5 -15 13 -33 20 -18 7 -46 26 -63 43 -25 26
-29 38 -29 87 l0 56 -65 12 c-36 7 -67 13 -70 13 -3 0 -33 -13 -66 -28z"/>
<path d="M7317 2803 c-3 -5 -2 -15 2 -21 9 -15 43 -4 38 12 -5 14 -33 20 -40
9z"/>
<path d="M6133 2508 c2 -7 7 -13 12 -13 5 0 10 6 13 13 2 6 -4 12 -13 12 -9 0
-15 -6 -12 -12z"/>
<path d="M6200 2412 c-25 -20 -19 -48 12 -58 28 -8 61 23 48 46 -14 27 -37 31
-60 12z"/>
<path d="M6270 2330 c0 -5 7 -10 15 -10 8 0 15 5 15 10 0 6 -7 10 -15 10 -8 0
-15 -4 -15 -10z"/>
<path d="M3565 2280 c-4 -7 -3 -16 3 -22 14 -14 47 -6 47 12 0 18 -40 26 -50
10z"/>
<path d="M6832 2178 c-16 -16 -15 -43 3 -58 8 -7 15 -19 15 -27 0 -8 6 -13 13
-10 6 2 11 11 9 19 -1 9 4 18 13 22 31 11 11 66 -25 66 -9 0 -21 -5 -28 -12z"/>
<path d="M3490 2155 c-10 -13 -10 -19 5 -35 33 -36 84 -14 70 30 -8 24 -56 28
-75 5z"/></g>
  </g>
  <g>
    <g fill="#f97316" stroke="none" transform="translate(0,1036) scale(0.1,-0.1)"><path d="M5187 8682 c-12 -13 -17 -36 -17 -74 0 -74 -28 -126 -108 -204 -38
-37 -66 -73 -72 -95 -15 -52 -2 -350 17 -370 8 -10 20 -39 28 -65 7 -27 33
-101 56 -164 39 -105 43 -123 42 -208 0 -80 -3 -96 -22 -120 -19 -24 -34 -44
-93 -124 -107 -144 -143 -180 -172 -176 -15 2 -34 30 -71 104 -27 55 -59 114
-70 130 -12 16 -28 45 -37 65 -28 61 -227 228 -379 317 -46 27 -101 67 -121
88 -33 34 -40 37 -65 28 -15 -5 -35 -23 -43 -39 -25 -51 -15 -271 16 -360 10
-28 15 -109 18 -270 5 -230 5 -230 50 -434 25 -112 46 -215 46 -228 0 -13 14
-64 30 -113 17 -49 30 -97 30 -107 0 -10 11 -42 25 -72 26 -55 37 -144 20
-160 -17 -15 -53 6 -79 47 -14 22 -40 50 -58 63 -70 49 -171 145 -189 181 -11
21 -43 55 -72 77 -29 21 -62 52 -72 67 -10 16 -29 37 -42 47 -13 10 -23 24
-23 31 0 7 -16 31 -36 54 -50 59 -82 55 -98 -11 -5 -22 0 -40 21 -75 15 -26
30 -72 35 -102 4 -30 14 -91 23 -135 21 -106 41 -243 54 -390 15 -150 34 -266
72 -421 16 -66 29 -131 29 -143 0 -12 6 -32 12 -44 7 -12 13 -31 14 -42 1 -11
5 -58 9 -105 6 -73 5 -88 -9 -99 -26 -22 -61 -5 -164 81 -53 46 -119 97 -145
115 -65 44 -115 92 -134 128 -9 17 -42 64 -74 107 -32 42 -65 92 -73 112 -10
24 -22 36 -35 36 -18 0 -51 -24 -51 -37 0 -11 31 -129 39 -148 16 -38 31 -91
31 -108 0 -10 4 -25 9 -35 9 -17 14 -37 51 -178 21 -82 147 -342 190 -390 16
-18 45 -63 66 -101 20 -37 49 -88 65 -113 15 -25 31 -57 34 -73 4 -15 29 -46
57 -70 27 -23 71 -61 96 -83 26 -23 74 -58 107 -77 33 -19 77 -49 98 -66 21
-16 48 -33 60 -37 12 -4 41 -20 64 -35 23 -16 46 -29 52 -29 6 0 11 -4 11 -9
0 -5 16 -12 35 -15 19 -4 39 -16 45 -27 15 -26 71 -60 155 -93 39 -15 87 -39
107 -52 l38 -24 642 0 c637 0 644 0 683 21 117 62 165 90 212 120 29 19 91 59
139 89 47 30 102 65 121 78 39 25 189 80 333 120 105 30 150 55 150 83 0 25
-68 59 -119 59 -35 0 -186 31 -226 47 -8 3 -15 11 -15 17 0 13 67 73 168 150
35 26 89 74 121 105 31 31 86 84 122 117 58 55 114 132 171 237 10 18 18 47
18 66 0 19 6 62 14 95 8 34 17 78 21 99 5 34 9 38 28 33 11 -3 27 0 35 7 12
10 14 5 8 -33 -9 -57 -9 -110 -1 -118 15 -15 45 44 45 89 0 47 -41 149 -60
149 -17 0 -23 -29 -11 -44 19 -22 -7 -31 -29 -11 -23 21 -35 55 -54 160 -8 44
-21 99 -28 122 -10 36 -9 51 6 100 17 56 78 160 103 176 7 4 13 19 13 32 0 13
14 38 33 56 17 18 31 36 30 41 -2 4 3 8 10 8 37 0 55 104 21 117 -17 6 -84
-24 -84 -37 0 -5 -6 -7 -13 -4 -15 5 -39 -18 -35 -32 4 -15 -34 -64 -61 -79
-33 -17 -181 -157 -181 -170 0 -6 -23 -33 -51 -60 -28 -28 -71 -81 -97 -120
-25 -38 -63 -90 -84 -115 -41 -47 -73 -97 -108 -167 -29 -56 -48 -72 -56 -47
-3 11 -16 42 -29 69 -61 137 -101 272 -116 386 -13 108 -9 128 49 214 27 38
55 86 62 105 19 48 133 270 180 350 37 63 73 155 137 345 25 75 31 108 32 196
2 103 -10 164 -48 254 -17 39 -99 271 -131 370 -27 83 -33 115 -33 190 0 50 4
107 8 128 5 28 3 42 -8 55 -9 9 -17 33 -19 52 -2 27 -7 35 -23 35 -14 0 -22
-10 -30 -37 -5 -20 -26 -58 -45 -84 -55 -76 -149 -228 -149 -243 -1 -15 -29
-54 -76 -106 -38 -42 -56 -87 -43 -103 8 -9 8 -16 0 -24 -7 -7 -12 -39 -12
-73 0 -39 -6 -69 -16 -83 -19 -28 -63 -159 -64 -189 0 -13 4 -23 9 -23 5 0 8
-19 7 -42 0 -38 -7 -50 -61 -105 -70 -72 -115 -127 -115 -141 0 -5 -11 -17
-25 -26 -13 -9 -47 -36 -75 -61 -57 -51 -70 -56 -46 -20 18 27 21 61 6 70 -17
10 -11 44 15 85 14 22 25 43 25 47 0 4 15 39 34 78 39 80 86 287 86 381 0 37
-10 88 -26 136 -21 65 -35 88 -92 148 -167 180 -302 306 -373 347 -16 10 -68
68 -114 128 -109 143 -135 209 -143 358 -4 97 -8 112 -29 138 -28 33 -53 37
-76 11z"/>
<path d="M6581 8216 c-28 -44 -27 -52 9 -65 37 -12 49 -8 74 26 l19 26 -29 24
c-39 31 -49 29 -73 -11z"/>
<path d="M3088 5893 c-10 -2 -18 -9 -18 -14 0 -5 -10 -23 -22 -40 -27 -37 -16
-63 28 -65 16 -1 58 -5 93 -9 57 -7 64 -6 58 9 -4 9 -1 16 5 16 6 0 3 9 -7 20
-17 19 -17 20 -1 20 29 0 14 34 -24 52 -34 16 -76 21 -112 11z m69 -39 c-3 -3
-12 -4 -19 -1 -8 3 -5 6 6 6 11 1 17 -2 13 -5z"/>
<path d="M3190 5740 c0 -5 5 -10 10 -10 6 0 10 5 10 10 0 6 -4 10 -10 10 -5 0
-10 -4 -10 -10z"/>
<path d="M7190 5295 c0 -8 7 -15 15 -15 8 0 15 7 15 15 0 8 -7 15 -15 15 -8 0
-15 -7 -15 -15z"/>
<path d="M7238 5178 c9 -9 15 -9 24 0 9 9 7 12 -12 12 -19 0 -21 -3 -12 -12z"/>
<path d="M7197 5134 c-3 -4 -3 -19 0 -35 3 -17 0 -35 -7 -44 -7 -9 -11 -16 -9
-18 57 -32 58 -32 66 48 6 53 5 55 -19 55 -14 0 -27 -3 -31 -6z"/>
<path d="M3700 4356 c0 -7 7 -19 15 -26 12 -10 16 -9 21 3 3 9 3 21 -1 27 -9
15 -35 12 -35 -4z"/>
<path d="M3232 4153 c-16 -27 -58 -95 -92 -153 -35 -58 -74 -121 -87 -140 -13
-19 -23 -38 -23 -42 0 -5 33 -8 73 -8 l72 0 43 74 c31 52 48 73 59 69 9 -4 16
2 20 16 5 21 33 30 33 11 0 -5 11 -10 24 -10 15 0 26 -7 29 -20 3 -12 14 -20
25 -20 30 0 36 17 12 32 -32 20 -24 26 21 14 30 -8 42 -7 47 1 5 8 46 -5 135
-43 70 -30 131 -54 136 -54 5 0 43 -16 85 -35 l77 -35 152 1 c170 0 169 -5 12
55 -155 58 -205 78 -265 104 -36 16 -108 46 -160 68 -52 22 -158 68 -235 101
-76 34 -144 61 -151 61 -7 0 -25 -21 -42 -47z m113 -103 c3 -6 -1 -7 -9 -4
-18 7 -21 14 -7 14 6 0 13 -4 16 -10z m115 -49 c0 -5 -9 -7 -20 -4 -11 3 -20
7 -20 9 0 2 9 4 20 4 11 0 20 -4 20 -9z"/>
<path d="M7015 4078 c-149 -61 -254 -101 -515 -194 l-205 -73 181 -1 182 0
155 55 c85 30 158 55 163 55 4 0 26 9 48 19 81 38 77 39 137 -49 l54 -80 83 0
83 0 -108 160 c-63 94 -114 160 -123 159 -8 -1 -69 -23 -135 -51z"/>
<path d="M7021 3886 c-9 -10 -8 -16 3 -25 22 -18 51 -9 54 17 3 18 -1 22 -21
22 -14 0 -30 -6 -36 -14z"/>
<path d="M4406 3881 c-7 -10 22 -37 30 -28 9 8 -3 37 -15 37 -5 0 -12 -4 -15
-9z"/>
<path d="M4460 3856 c0 -9 7 -16 16 -16 9 0 14 5 12 12 -6 18 -28 21 -28 4z"/>
<path d="M3555 3834 l-40 -24 105 1 105 1 -50 24 c-60 29 -69 29 -120 -2z"/>
<path d="M3265 3820 c-4 -6 7 -10 27 -9 27 0 30 2 13 9 -27 12 -33 12 -40 0z"/></g>
  </g>
</svg>
